# xmcd
#
# Track frame offsets: 
#        150
#        25253
#        26944
#        46552
#        73972
#        96628
#        110866
#        114031
#        141506
#        161974
#        165292
#        195340
#        213500
#        215663
#
# Disc length: 3162 seconds
#
# Revision: 0
# Processed by: cddbd v1.5.2PL0 Copyright (c) Steve Scherf et al.
# Submitted via: ExactAudioCopy v0.99pb5
#
DISCID=d20c580e
DTITLE=John Mooney - Live at the 2010 NO Jazz Fest
DYEAR=2010
DGENRE=New Orleans
TTITLE0=Louise McGhee
TTITLE1=banter 1
TTITLE2=Tell Me Who
TTITLE3=U Tol' Me
TTITLE4=Baby Please
TTITLE5=Kiss Me
TTITLE6=banter 2
TTITLE7=Baby Please Don't Go
TTITLE8=U Keep Me (Hangin' On)
TTITLE9=banter 3
TTITLE10=Too Tall To Mambo
TTITLE11=Keep That Ring
TTITLE12=crowd
TTITLE13=Country Boy
EXTD=
EXTT0=
EXTT1=
EXTT2=
EXTT3=
EXTT4=
EXTT5=
EXTT6=
EXTT7=
EXTT8=
EXTT9=
EXTT10=
EXTT11=
EXTT12=
EXTT13=
PLAYORDER=
